<svg width="30" height="30" viewBox="0 0 30 30" fill="none" xmlns="http://www.w3.org/2000/svg">
<path fill-rule="evenodd" clip-rule="evenodd" d="M29.7071 14.2934C30.0977 14.6839 30.0977 15.3171 29.7071 15.7076L15.7075 29.7073C15.317 30.0978 14.6838 30.0978 14.2933 29.7073L0.292922 15.7069C-0.0976022 15.3164 -0.0976028 14.6832 0.292922 14.2927L14.2925 0.293044C14.6831 -0.0974801 15.3162 -0.0974788 15.7068 0.293045L29.7071 14.2934Z" fill="white"/>
<path d="M14.9996 1L29 15.0004L15.0004 29L1 14.9996L14.9996 1Z" fill="#1C232E"/>
<path d="M27.5 15L15 27.5L2.5 15L15 2.5L27.5 15Z" fill="#FF870F"/>
<path d="M16 10V8C16 7.45 15.55 7 15 7C14.45 7 14 7.45 14 8V10C13.45 10 13 10.45 13 11V23H17V11C17 10.45 16.55 10 16 10Z" fill="#1C232E"/>
</svg>
