<svg xmlns="http://www.w3.org/2000/svg" width="88" height="76" fill="none" viewBox="0 0 88 76"><path fill="#a09d25" d="M17.7593 59.444c-3.2809.8807-6.6638-1.0739-7.5444-4.3548L.21118 17.7593c-.88063-3.2809 1.07394-6.6638 4.35482-7.5444L41.8907.21118c3.2809-.88063 6.6638 1.07393 7.5444 4.3548L59.4389 41.8906c.8806 3.2808-1.074 6.6637-4.3549 7.5444L17.7593 59.444"/><path fill="#c1d992" d="m54.1539 45.9715-37.3247 9.9984c-1.3693.3651-2.7762-.4457-3.1467-1.815L3.68418 16.8303c-.36514-1.3692.44568-2.7761 1.81495-3.1466L42.8238 3.68c1.3693-.36514 2.7762.44568 3.1467 1.81494L55.9742 42.8195c.3652 1.3747-.451 2.7815-1.8203 3.152"/><path fill="#105b5b" d="M52.4307 29.6101c-.8537-.1235-1.7236-.0322-2.5291.2578-.3812.1342-.8001.0107-1.0363-.3115-.3974-.5369-.9075-1.0148-1.525-1.3853-2.2231-1.3425-5.0959-.8484-6.7497 1.1491-1.96 2.3787-1.466 5.8744.9987 7.6303.0806.059.1665.1127.247.1664.3544.2256.6068.5907.6605 1.0095.1879 1.3908.9236 2.701 2.1586 3.5762 2.3627 1.6808 5.6436 1.133 7.3243-1.2296l.0054-.0054c.1879-.2685.4725-.451.7947-.5208.7732-.1665 1.5142-.5048 2.1532-1.0095l-2.5023-9.3272M21.2806 46.3796v-.0054c.0108-.3275.145-.6389.3759-.8752.9558-.9719 1.5357-2.3197 1.5035-3.8071-.059-2.6848-2.1156-4.8703-4.7897-5.1012-1.8741-.1611-3.5816.6712-4.6287 2.0458-.2631.3491-.7249.4779-1.1384.333-.6121-.2148-1.2726-.3222-1.9707-.29-.3597.0161-.71413.0698-1.05242.1504l3.04462 11.3622c.8699.7464 1.9921 1.2135 3.2272 1.2565 2.8996.0966 5.3321-2.1747 5.4287-5.069"/><path fill="#1f8a52" d="M16.8293 55.9699 54.154 45.9662c1.3693-.3652 2.1801-1.772 1.8149-3.1466l-1.7881-6.6692-42.2863 11.33 1.7881 6.6692c.3705 1.3746 1.7774 2.1908 3.1467 1.8203"/><path fill="#dde39c" d="m30.0782 42.6145-10.1397 2.7168 2.4514 9.1491 10.1397-2.7168-2.4514-9.1491"/><path fill="#a09d25" d="m38.5065 13.1145-.2363-.8806c-.1826-.6713-.8753-1.074-1.5465-.8914l-22.1124 5.9227c-.6712.1826-1.0739.8753-.8913 1.5465l.2362.8806c.2095.7894-.2577 1.6002-1.047 1.815l-1.9707.5262.9987 3.7266 31.3912-8.4089-.9987-3.7266-2.0083.537c-.7947.2094-1.6055-.2578-1.8149-1.0471"/><path fill="#fbaf00" d="m42.3208 13.622-31.3892 8.4103 6.4273 23.9879 31.3892-8.4103-6.4273-23.9879"/><path fill="#ecefd9" d="M20.1215 25.7386c-2.7976.7517-4.4622 3.6299-3.7105 6.4275l3.5279 13.1664 10.138-2.717L26.549 29.449c-.7464-2.7976-3.6245-4.4622-6.4275-3.7104m24.0339 8.2478-11.9905 3.2111c-.5477.145-1.1115-.1772-1.2565-.7249l-3.1413-11.722c-.145-.5477.1772-1.1115.7249-1.2565l11.9906-3.2111c.5477-.145 1.1115.1772 1.2565.7249l3.1412 11.722c.145.5477-.1772 1.1116-.7249 1.2565"/><path fill="#a09d25" d="m26.5317 38.2231-5.7134 1.5304c-.5906.1611-1.1974-.1933-1.3585-.784s.1933-1.1974.784-1.3585l5.7133-1.5304c.5907-.1611 1.1975.1933 1.3586.784.1557.5906-.1934 1.1974-.784 1.3585"/><path fill="#000" d="M20.7659 32.2951c-.0108 0-.0215 0-.0322-.0054-.0698-.0161-.1074-.0913-.0913-.1557l.5369-2.0136c.0108-.043.0484-.0806.0913-.0913.043-.0108.0913 0 .1235.0322l1.4767 1.4767c.0483.0483.0483.1288 0 .1825-.0483.0484-.1289.0484-.1826 0l-1.3155-1.3155-.4833 1.7988c-.0161.0537-.0645.0913-.1235.0913"/><path fill="#fff" d="m24.0556 30.7622-4.8339 1.2952.6809 2.5414 4.8339-1.2952-.6809-2.5414"/><path fill="#eaeed6" d="m17.8283 25.991-2.411-5.1603-4.4837 1.2028 2.4056 5.1603 4.4891-1.2028"/><path fill="#c1d992" d="m22.3117 24.7882-2.4056-5.1603-4.4891 1.2028 2.411 5.1603 4.4837-1.2028"/><path fill="#eaeed6" d="m26.7956 23.5854-2.4057-5.1549-4.4837 1.1974 2.4057 5.1603 4.4837-1.2028"/><path fill="#c1d992" d="m31.278 22.3879-2.4056-5.1602-4.4837 1.2028 2.4056 5.1549 4.4837-1.1975"/><path fill="#eaeed6" d="m35.7624 21.1851-2.4057-5.1603-4.4837 1.2028 2.4057 5.1603 4.4837-1.2028"/><path fill="#c1d992" d="m40.2467 19.9823-2.4002-5.1603-4.4891 1.2028 2.4056 5.1603 4.4837-1.2028"/><path fill="#eaeed6" d="m44.735 18.7795-2.4056-5.1602-4.4837 1.2028 2.4056 5.1602 4.4837-1.2028"/><path fill="#2c8851" d="M37.2398 34.2173c-.3812-1.584-.8108-2.1693-1.6324-2.2284l.0537-.7142c1.3585.1021 1.8955 1.1814 2.2768 2.7762l-.6981.1664"/><path fill="#40c76e" d="M36.1348 30.5391c-.3222-.1504-.6981-.1128-1.0417-.1933-.7303-.1181-.972-.8968-1.5411-1.2297-.2578-.1288-.6927-.1986-.9451-.0644-.1879.0966-.3705.2524-.5423.4457-.0537.059-.0645.145-.0323.2148.2685.5638.6283 1.4229.4887 1.7558-.1396.333-.6068.0537-1.1169-.451-.0698-.0698-.188-.043-.2255.0483-.3813 1.0525-.5048 2.2231-.1397 2.8191.4028.5638.8968.4672 1.3156-.0054.5424-.4779 1.3102-.6175 2.0351-.5853.7303.0752 1.5572.1235 1.9814-.5799.5102-.639.5853-1.772-.2362-2.1747"/><path fill="#1f8a52" d="M42.577 27.0811c-.0537-.0967-.1665-.1558-.2738-.1719-.1128-.0161-.2256-.0053-.3383 0-.4565.0161-.9129-.1181-1.3317-.2899-.4242-.1719-.8323-.3866-1.2673-.5424-.2309-.0859-.4725-.1503-.7141-.1611-.2524-.0053-.5048.0484-.7196.1772-.0429-.161-.1127-.3114-.1987-.4564-.1396-.2255-.3221-.4188-.5262-.5799-.2094-.1665-.451-.3061-.7088-.3651-.6014-.145-1.2296.1235-1.7505.4564s-1.0095.741-1.6055.9236c-.3598.1127-.7411.1342-1.1169.1825-.2095.0323-.4242.0698-.6122.1665-.1879.0967-.3544.2577-.4134.4618-.1074.3759.1718.7571.494.9773.3275.2148.7088.3383 1.0148.5853.4189.3436.6122.8752.8538 1.3639.2417.4832.5907.9772 1.1223 1.09.4833.102.988-.1665 1.3048-.5531.2202-.2685.4887-.6927.5424-1.1169.6014.682 1.0417 1.5572 1.1276 2.6688h.0054c.0268.6497.1074 1.3102.1825 1.933l.0323.2578.7087-.0859-.0322-.2578c-.0805-.6497-.1557-1.2941-.1879-1.9008 0-.0161-.0054-.0269-.0054-.043-.0429-.9343.0322-1.7774.392-2.4325.0161.3491.1128.6927.3544.9558.3329.3598.9129.4672 1.3532.2471.3812-.188.6229-.5746.8537-.9344.3706-.5799.7625-1.1491 1.1706-1.7022.1343-.1825.2739-.3705.3169-.5906.0107-.0859.0161-.1826-.0269-.2631m-4.9616 2.7815c-.2524-.4941-.5745-.9236-.9343-1.2941.3812-.1665.7195-.435.9558-.7786.0483.0912.102.1825.1665.2684.1288.1772.2899.3383.4671.4726-.3222.3812-.5316.8376-.6551 1.3317"/><path fill="#a09d25" d="M34.5115 34.867c.0376-.0107.0751.0108.0913.043l.6014 1.4713 5.9066-1.5841-.2148-1.5787c-.0053-.0376.0161-.0751.0537-.0859l.043-.0107c.2148-.0591.3651-.2631.3383-.4833-.0322-.2738-.3007-.4457-.5531-.3759l-6.5134 1.7452c-.247.0644-.3867.3275-.3061.5692.0805.2309.3275.3544.5531.2899m-16.6834-8.876c.3329 1.2404 1.6056 1.976 2.846 1.6431s1.976-1.6055 1.6431-2.8459l-4.4891 1.2028m8.9668-2.4003c.3329 1.2404 1.6056 1.976 2.846 1.6431s1.976-1.6055 1.6431-2.8459l-4.4891 1.2028m8.9727-2.4056c.3329 1.2404 1.6055 1.976 2.8459 1.6431s1.9761-1.6055 1.6431-2.8459l-4.489 1.2028"/><path fill="#a09d25" d="M13.3398 27.1938c.333 1.2404 1.6056 1.976 2.846 1.6431s1.976-1.6055 1.6431-2.8459l-4.4891 1.2028m8.9727-2.4057c.3329 1.2404 1.6055 1.9761 2.8459 1.6432 1.2404-.333 1.9761-1.6056 1.6432-2.846l-4.4891 1.2028m8.9678-2.4002c.3329 1.2404 1.6055 1.976 2.8459 1.6431s1.9761-1.6055 1.6431-2.8459l-4.489 1.2028m8.9668-2.4056c.3329 1.2404 1.6055 1.9761 2.8459 1.6431 1.2404-.3329 1.9761-1.6055 1.6431-2.8459l-4.489 1.2028"/><path fill="#fbaf00" fill-rule="evenodd" d="M72.3901 56.2384v-.0644H18.4892v.0644c-5.3697.0108-9.72455 4.3656-9.72455 9.7406s4.34945 9.7298 9.72455 9.7406h53.9009c5.3804 0 9.7406-4.3602 9.7406-9.7406-.0053-5.3804-4.3655-9.7406-9.7406-9.7406" clip-rule="evenodd"/><path fill="#fff" d="m18.9398 60.7113 1.235 2.9479 3.1843.2632c.4295.0375.6067.5745.2792.8537l-2.4217 2.0835.7356 3.109c.0967.4188-.3598.7518-.7303.5262l-2.7331-1.6592-2.7332 1.6592c-.3705.2256-.8269-.1074-.7303-.5262l.7357-3.109-2.4218-2.0835c-.3275-.2792-.1503-.8215.2792-.8537l3.1843-.2632 1.235-2.9479c.1665-.4027.7357-.4027.9021 0m13.4668 0 1.235 2.9479 3.1843.2632c.4295.0375.6067.5745.2792.8537l-2.4217 2.0835.7356 3.109c.0967.4188-.3598.7518-.7303.5262l-2.7331-1.6592-2.7332 1.6592c-.3705.2256-.827-.1074-.7303-.5262l.7357-3.109-2.4218-2.0835c-.3275-.2792-.1503-.8215.2792-.8537l3.1843-.2632 1.235-2.9479c.1718-.4027.7356-.4027.9021 0m13.4736 0 1.2351 2.9479 3.1842.2632c.4296.0375.6068.5745.2792.8537l-2.4217 2.0835.7356 3.109c.0967.4188-.3597.7518-.7302.5262l-2.7332-1.6592-2.7332 1.6592c-.3705.2256-.8269-.1074-.7303-.5262l.7357-3.109-2.4217-2.0835c-.3276-.2792-.1504-.8215.2792-.8537l3.1842-.2632 1.235-2.9479c.1719-.4027.7357-.4027.9021 0m13.4717 0 1.235 2.9479 3.1843.2632c.4295.0375.6067.5745.2792.8537l-2.4217 2.0835.7356 3.109c.0967.4188-.3598.7518-.7303.5262l-2.7331-1.6592-2.7332 1.6592c-.3705.2256-.8269-.1074-.7303-.5262l.7357-3.109-2.4218-2.0835c-.3275-.2792-.1503-.8215.2793-.8537l3.1842-.2632 1.235-2.9479c.1665-.4027.7357-.4027.9021 0m13.4678 0 1.235 2.9479 3.1842.2632c.4296.0375.6068.5745.2793.8537l-2.4218 2.0835.7357 3.109c.0966.4188-.3598.7518-.7303.5262l-2.7332-1.6592-2.7331 1.6592c-.3705.2256-.827-.1074-.7303-.5262l.7356-3.109-2.4217-2.0835c-.3275-.2792-.1503-.8215.2792-.8537l3.1843-.2632 1.235-2.9479c.1718-.4027.7356-.4027.9021 0"/><path fill="#ff4365" d="M86.5072 20.3689c-1.6056-3.0983-4.371-5.4287-7.7055-6.4919-1.2941-.3973-2.6312-.596-3.9682-.596-1.3371 0-2.6741.1987-3.9682.596-3.3346 1.0578-6.1 3.3936-7.7055 6.4919-.9773 1.8633-1.4928 3.9414-1.4928 6.057 0 8.0008 5.1173 11.1153 9.5097 17.9777 2.6687 4.1346 1.9224 6.6047 3.646 6.6047h.0215c1.7237 0 .9773-2.4701 3.646-6.6047C82.8826 37.5412 88 34.4267 88 26.4259c0-2.1156-.5102-4.1937-1.4928-6.057M74.8281 36.4941c-5.5523 0-10.0574-4.4998-10.0574-10.0574s4.4998-10.0574 10.0574-10.0574 10.0574 4.4998 10.0574 10.0574-4.5051 10.0574-10.0574 10.0574"/><path fill="#fbbc04" d="M77.7162 23.9666c1.2941 0 2.1049-1.4014 1.4606-2.5183-.0108-.0161-.0162-.0322-.0269-.0484-.6497-1.1007-2.2553-1.0793-2.8943.0269.6444-1.1115-.1503-2.513-1.439-2.5238h-.0537c-1.2834.0054-2.0781 1.4069-1.4391 2.5238-.639-1.1062-2.2445-1.133-2.8943-.0269-.0107.0162-.0161.0323-.0268.0484-.6444 1.1222.1664 2.5183 1.4605 2.5183-1.2941 0-2.1049 1.4015-1.4605 2.5184.0107.0161.0161.0322.0268.0483.6498 1.1008 2.2553 1.0794 2.8943-.0268-.6444 1.1115.1503 2.5184 1.4391 2.5237h.0537c1.2887-.0053 2.078-1.4068 1.439-2.5237.639 1.1062 2.2446 1.133 2.8943.0268.0107-.0161.0161-.0322.0269-.0483.6443-1.1222-.1665-2.5184-1.4606-2.5184"/><path fill="#ecefd9" d="M74.7842 25.6581c.9342 0 1.6915-.7573 1.6915-1.6915 0-.9341-.7573-1.6914-1.6915-1.6914-.9341 0-1.6914.7573-1.6914 1.6914 0 .9342.7573 1.6915 1.6914 1.6915"/><path fill="#1f8a52" d="M82.3564 27.2368c-.3973 3.8071-3.6192 6.7765-7.5283 6.7765h-.1933c-3.8232-.0967-6.943-3.0285-7.335-6.7712 3.6568.2202 6.8141 2.905 7.5068 6.6477.6927-3.7642 3.8769-6.4544 7.5498-6.653"/></svg>
